# ProBuilder 5.2.2
# https://unity3d.com/unity/features/worldbuilding/probuilder
# 12/06/2024 02:20:42 p. m.

mtllib ./piklarbockout.mtl
o piklarbockout

g Cube (7)
v 1 4.824668 1
v -1 4.824668 1
v 1 5.5 1
v -1 5.5 1
v -1 4.824668 -1
v -1 5.5 -1
v 1 4.824668 -1
v 1 5.5 -1
v 0.8753796 4.824668 -0.8753777
v -0.8753777 4.824668 -0.8753777
v 0.8753796 4.824668 0.8753777
v -0.8753777 4.824668 0.8753777
v 0.8753796 4.708695 -0.8753777
v -0.8753777 4.708695 -0.8753777
v 0.8753796 4.708695 0.8753777
v -0.8753777 4.708695 0.8753777
v 0.9780159 4.708695 -0.9780159
v -0.9780159 4.708695 -0.9780159
v 0.9780159 4.708695 0.9780159
v -0.9780159 4.708695 0.9780159
v 0.9780159 4.217057 -0.9780159
v -0.9780159 4.217057 -0.9780159
v 0.9780159 4.217057 0.9780159
v -0.9780159 4.217057 0.9780159
v 0.6495209 3.823221 -0.6495209
v -0.6495209 3.823221 -0.6495209
v 0.6495209 3.823221 0.6495209
v -0.6495209 3.823221 0.6495209
v 0.6495209 -0.4999998 -0.6495209
v -0.6495209 -0.4999998 -0.6495209
v 0.6495209 -0.4999998 0.6495209
v -0.6495209 -0.4999998 0.6495209
v -0.9999695 -4.824674 1
v 1.000032 -4.824662 1
v -0.9999619 -5.500006 1
v 1.000036 -5.499994 1
v 1.000032 -4.824662 -1
v 1.000036 -5.499994 -1
v -0.9999695 -4.824674 -1
v -0.9999619 -5.500006 -1
v -0.8753471 -4.824673 -0.8753777
v 0.8754101 -4.824662 -0.8753777
v -0.8753471 -4.824673 0.8753777
v 0.8754101 -4.824662 0.8753777
v -0.8753471 -4.7087 -0.8753777
v 0.8754101 -4.70869 -0.8753777
v -0.8753471 -4.7087 0.8753777
v 0.8754101 -4.70869 0.8753777
v -0.9779854 -4.708701 -0.9780159
v 0.9780483 -4.70869 -0.9780159
v -0.9779854 -4.708701 0.9780159
v 0.9780483 -4.70869 0.9780159
v -0.9779854 -4.217062 -0.9780159
v 0.9780445 -4.217051 -0.9780159
v -0.9779854 -4.217062 0.9780159
v 0.9780445 -4.217051 0.9780159
v -0.6494942 -3.823225 -0.6495209
v 0.6495476 -3.823217 -0.6495209
v -0.6494942 -3.823225 0.6495209
v 0.6495476 -3.823217 0.6495209
v -0.6495209 0.4999962 -0.6495209
v 0.6495209 0.5000038 -0.6495209
v -0.6495209 0.4999962 0.6495209
v 0.6495209 0.5000038 0.6495209

vt 1 4.824668
vt -1 4.824668
vt 1 5.5
vt -1 5.5
vt -1 1
vt 1 1
vt -1 -1
vt 1 -1
vt 0.8753796 -0.8753777
vt -0.8753777 -0.8753777
vt 0.8753796 0.8753777
vt -0.8753777 0.8753777
vt -0.8753796 4.824668
vt 0.8753777 4.824668
vt -0.8753796 4.708695
vt 0.8753777 4.708695
vt -0.9780159 -0.9780159
vt 0.9780159 -0.9780159
vt -0.9780159 0.9780159
vt 0.9780159 0.9780159
vt -0.9780159 4.708695
vt 0.9780159 4.708695
vt -0.9780159 4.217057
vt 0.9780159 4.217057
vt -0.9780159 3.864871
vt 0.9780159 3.864871
vt -0.6495209 3.352021
vt 0.6495209 3.352021
vt -0.6495209 3.823221
vt 0.6495209 3.823221
vt -0.6495209 -0.4999998
vt 0.6495209 -0.4999998
vt -0.9999962 4.824668
vt 0.9999924 5.5
vt -1 5.499989
vt 0.9999962 4.824668
vt 1 5.499989
vt -0.9999924 5.5
vt -0.6494942 3.823221
vt 0.6494942 -0.4999998
vt -0.6495212 -0.5
vt 0.6495209 -0.5
vt 0.6494945 3.823221
vt -0.6494945 -0.4999998

vn 0 0 1
vn -1 0 0
vn 0 0 -1
vn 1 0 0
vn 0 1 0
vn 0 -1 0
vn 0 -0.6405284 -0.7679346
vn 0.7679346 -0.6405284 0
vn -0.7679346 -0.6405284 0
vn 0 -0.6405284 0.7679346
vn -3.747522E-06 0.6405284 -0.7679346
vn -0.7679396 0.6405221 0
vn 0.7679311 0.6405324 0
vn -3.747522E-06 0.6405284 0.7679346

usemtl ProBuilder_Default_HDRP
f 3/3/1 4/4/1 2/2/1 1/1/1
f 4/3/2 6/4/2 5/2/2 2/1/2
f 6/3/3 8/4/3 7/2/3 5/1/3
f 8/3/4 3/4/4 1/2/4 7/1/4
f 8/7/5 6/8/5 4/6/5 3/5/5
f 9/9/6 10/10/6 5/7/6 7/8/6
f 11/11/6 9/9/6 7/8/6 1/6/6
f 10/10/6 12/12/6 2/5/6 5/7/6
f 12/12/6 11/11/6 1/6/6 2/5/6
f 13/15/3 14/16/3 10/14/3 9/13/3
f 15/15/4 13/16/4 9/14/4 11/13/4
f 14/15/2 16/16/2 12/14/2 10/13/2
f 16/15/1 15/16/1 11/14/1 12/13/1
f 17/17/5 18/18/5 14/9/5 13/10/5
f 19/19/5 17/17/5 13/10/5 15/12/5
f 18/18/5 20/20/5 16/11/5 14/9/5
f 20/20/5 19/19/5 15/12/5 16/11/5
f 21/23/3 22/24/3 18/22/3 17/21/3
f 23/23/4 21/24/4 17/22/4 19/21/4
f 22/23/2 24/24/2 20/22/2 18/21/2
f 24/23/1 23/24/1 19/22/1 20/21/1
f 25/27/7 26/28/7 22/26/7 21/25/7
f 27/27/8 25/28/8 21/26/8 23/25/8
f 26/27/9 28/28/9 24/26/9 22/25/9
f 28/27/10 27/28/10 23/26/10 24/25/10
f 29/31/3 30/32/3 26/30/3 25/29/3
f 31/31/4 29/32/4 25/30/4 27/29/4
f 30/31/2 32/32/2 28/30/2 26/29/2
f 32/31/1 31/32/1 27/30/1 28/29/1
f 35/34/1 36/35/1 34/33/1 33/1/1
f 36/3/4 38/4/4 37/2/4 34/1/4
f 38/37/3 40/38/3 39/2/3 37/36/3
f 40/3/2 35/4/2 33/2/2 39/1/2
f 40/7/6 38/8/6 36/6/6 35/5/6
f 41/9/5 42/10/5 37/7/5 39/8/5
f 43/11/5 41/9/5 39/8/5 33/6/5
f 42/10/5 44/12/5 34/5/5 37/7/5
f 44/12/5 43/11/5 33/6/5 34/5/5
f 45/15/3 46/16/3 42/14/3 41/13/3
f 47/15/2 45/16/2 41/14/2 43/13/2
f 46/15/4 48/16/4 44/14/4 42/13/4
f 48/15/1 47/16/1 43/14/1 44/13/1
f 49/17/6 50/18/6 46/9/6 45/10/6
f 51/19/6 49/17/6 45/10/6 47/12/6
f 50/18/6 52/20/6 48/11/6 46/9/6
f 52/20/6 51/19/6 47/12/6 48/11/6
f 53/23/3 54/24/3 50/22/3 49/21/3
f 55/23/2 53/24/2 49/22/2 51/21/2
f 54/23/4 56/24/4 52/22/4 50/21/4
f 56/23/1 55/24/1 51/22/1 52/21/1
f 57/27/11 58/28/11 54/26/11 53/25/11
f 59/27/12 57/28/12 53/26/12 55/25/12
f 58/27/13 60/28/13 56/26/13 54/25/13
f 60/27/14 59/28/14 55/26/14 56/25/14
f 61/31/3 62/40/3 58/30/3 57/39/3
f 63/41/2 61/42/2 57/30/2 59/29/2
f 62/31/4 64/32/4 60/30/4 58/29/4
f 64/44/1 63/32/1 59/43/1 60/29/1

